<svg xmlns="http://www.w3.org/2000/svg" width="24" height="24" viewBox="0 0 24 24">
    <g fill="none" fill-rule="evenodd" stroke="#000" stroke-linecap="round" stroke-linejoin="round" stroke-width="1.5">
        <path d="M18.75 6a.75.75 0 0 0-.75-.75h-3.75V1.5a.75.75 0 0 0-.75-.75h-3a.75.75 0 0 0-.75.75v3.75H6a.75.75 0 0 0-.75.75v3c0 .414.336.75.75.75h3.75v3.75c0 .414.336.75.75.75h3a.75.75 0 0 0 .75-.75V9.75H18a.75.75 0 0 0 .75-.75V6zM3.75 23.25l-2.014-2.381a4.5 4.5 0 0 1-.986-2.811v-5.171a1.5 1.5 0 0 1 3 0v3.75"/>
        <path d="M8.25 23.25v-3a4.5 4.5 0 0 0-.757-2.5l-1.142-1.71a1.4 1.4 0 0 0-1.977-.44 1.4 1.4 0 0 0-.474 1.787l1.352 2.25M20.25 23.25l2.014-2.381a4.5 4.5 0 0 0 .986-2.811v-5.171a1.5 1.5 0 0 0-3 0v3.75"/>
        <path d="M15.75 23.25v-3c0-.89.263-1.76.757-2.5l1.142-1.712a1.4 1.4 0 0 1 1.977-.444 1.4 1.4 0 0 1 .476 1.791l-1.352 2.25"/>
    </g>
</svg>
