<svg xmlns="http://www.w3.org/2000/svg" width="30" height="22" viewBox="0 0 30 22">
    <path fill="#50C9C3" fill-rule="evenodd" d="M21.736 9.573h3.14c2.81.587 4.959 2.519 4.959 6.045 0 3.863-2.893 6.382-6.612 6.382-4.463 0-7.19-3.61-7.19-8.733C16.033 5.626 20.91.587 30 0v2.771c-4.959.672-7.851 2.771-8.264 6.802zm-16.034 0h3.224c2.727.587 4.876 2.519 4.876 6.045 0 3.863-2.893 6.382-6.612 6.382C2.727 22 0 18.39 0 13.267 0 5.626 4.959.587 14.05 0v2.771c-4.96.672-7.934 2.771-8.348 6.802z"/>
</svg>
