<svg xmlns="http://www.w3.org/2000/svg" width="94" height="84" viewBox="0 0 94 84">
    <g fill="none" fill-rule="evenodd">
        <path fill="#E6EFFF" fill-rule="nonzero" d="M81.358 35.882c6.588 3.968 8.712 3.08 10.609 5.643 4.226 5.71-1.12 17.132-5.283 23.245C78.986 75.996 62.91 87.1 51.573 82.61c-8.157-3.233-6.213-11.506-17.376-17.82-8.426-4.754-12.346-1.632-18.913-6.804-5.315-4.194-10.038-11.981-9.06-20.725 1.03-9.377 8.452-18.411 16.012-18.971 6.604-.48 9.029 5.78 13.995 4.517C43.706 20.9 41.118 5.943 49.777 1.363c8.849-4.686 25.089 3.788 25.733 11.285.418 4.881-5.98 6.936-5.193 12.372.65 4.607 5.954 7.798 11.041 10.862z"/>
        <path fill="#FFF" fill-rule="nonzero" d="M31.106 12.436h35.391l7.508 12.569V74.38H38.608V25.005z"/>
        <path fill="#50C9C3" fill-rule="nonzero" d="M32.253 6.223h33.103c.633 0 1.147.514 1.147 1.147v5.072H31.106V7.37c0-.633.514-1.147 1.147-1.147z"/>
        <path fill="#212121" fill-rule="nonzero" d="M66.503 13.208H31.106a.75.75 0 0 1-.75-.75V7.395c0-1.047.85-1.896 1.897-1.896h33.103c1.048 0 1.897.849 1.897 1.896v5.067a.75.75 0 0 1-.75.745zM31.857 11.69h33.895V7.396A.396.396 0 0 0 65.356 7H32.253a.396.396 0 0 0-.396.396v4.295z"/>
        <path d="M38.566 25.005h35.438V74.38H38.566z"/>
        <path fill="#50C9C3" fill-rule="nonzero" d="M38.608 25.005h-.042V74.38H23.61V25.005l7.496-12.569z"/>
        <path fill="#212121" fill-rule="nonzero" d="M74.005 25.755H38.608a.755.755 0 0 1-.644-.37l-7.497-12.563a.75.75 0 0 1 .645-1.136h35.396c.264 0 .508.139.644.365l7.497 12.568a.755.755 0 0 1-.644 1.136zm-34.969-1.5h33.648l-6.61-11.047H32.428l6.61 11.046z"/>
        <path fill="#212121" fill-rule="nonzero" d="M38.608 25.755a.75.75 0 0 1-.644-.37L31.096 13.9l-6.868 11.485a.75.75 0 1 1-1.29-.766l7.503-12.568a.745.745 0 0 1 1.284 0l7.528 12.568a.755.755 0 0 1-.259 1.03.787.787 0 0 1-.386.106z"/>
        <path fill="#212121" fill-rule="nonzero" d="M23.61 25.755a.787.787 0 0 1-.386-.106.755.755 0 0 1-.259-1.03l7.502-12.568a.755.755 0 0 1 .645-.365h35.396c.264 0 .508.139.644.365l7.497 12.568a.75.75 0 0 1-1.289.766l-7.285-12.177h-34.54l-7.28 12.177a.75.75 0 0 1-.645.37z"/>
        <path fill="#96DEDA" fill-rule="nonzero" d="M70.972 39.221v7.17a11.29 11.29 0 0 1-.983-.73c-.84-.67-1.584-1.252-3.074-1.252-1.49 0-2.24.581-3.08 1.252a5.901 5.901 0 0 1-3.35 1.548H59.17a5.88 5.88 0 0 1-3.355-1.548c-.84-.67-1.585-1.252-3.07-1.252-1.484 0-2.24.581-3.08 1.252a5.88 5.88 0 0 1-3.349 1.548h-1.32a5.901 5.901 0 0 1-3.355-1.548l-.037-.026V38.47l.037.026a5.864 5.864 0 0 0 3.354 1.543h1.321a5.848 5.848 0 0 0 3.344-1.543c.84-.67 1.585-1.252 3.08-1.252s2.23.581 3.07 1.252a5.848 5.848 0 0 0 3.36 1.543h1.32a5.864 5.864 0 0 0 3.35-1.543c.84-.67 1.585-1.252 3.08-1.252s2.235.581 3.075 1.252c.31.26.637.502.977.724zM70.972 49.185v7.164c-.342-.222-.67-.464-.983-.724-.84-.671-1.584-1.252-3.074-1.252-1.49 0-2.24.581-3.08 1.252a5.864 5.864 0 0 1-3.35 1.543H59.17a5.848 5.848 0 0 1-3.355-1.543c-.84-.671-1.585-1.252-3.07-1.252-1.484 0-2.245.57-3.085 1.252a5.848 5.848 0 0 1-3.35 1.543h-1.32a5.864 5.864 0 0 1-3.355-1.543l-.037-.027V48.43l.037.032a5.864 5.864 0 0 0 3.355 1.543h1.32a5.848 5.848 0 0 0 3.35-1.543c.84-.676 1.585-1.252 3.08-1.252s2.23.576 3.07 1.252a5.848 5.848 0 0 0 3.36 1.543h1.32a5.864 5.864 0 0 0 3.35-1.543c.84-.676 1.585-1.252 3.08-1.252s2.235.576 3.075 1.252c.312.259.638.5.977.724z"/>
        <path fill="#212121" fill-rule="nonzero" d="M74.005 75.13H23.61a.755.755 0 0 1-.75-.75V25.005a.75.75 0 0 1 1.5 0v48.603h48.894V25.005a.75.75 0 1 1 1.5 0V74.38a.755.755 0 0 1-.75.75z"/>
        <path fill="#212121" fill-rule="nonzero" d="M38.566 57.754a.745.745 0 0 1-.75-.745V25.005a.75.75 0 1 1 1.495 0v32.004a.745.745 0 0 1-.745.745zM38.608 75.13a.755.755 0 0 1-.75-.75V62.34a.75.75 0 0 1 1.5 0v12.045a.755.755 0 0 1-.75.745z"/>
        <path fill="#FFF" fill-rule="nonzero" d="M89.71 67.12c-.527 8.945-6.312 11.872-13.207 11.465-6.894-.407-12.288-4-11.754-12.943.533-8.945 6.662-17.868 13.556-17.434 6.894.433 11.94 9.963 11.406 18.913z"/>
        <path fill="#212121" fill-rule="nonzero" d="M77.755 79.372c-.422 0-.855 0-1.294-.042-8.532-.502-12.96-5.384-12.463-13.736.529-8.939 6.768-18.607 14.354-18.158 3.514.212 6.742 2.568 9.093 6.641a24.006 24.006 0 0 1 3.016 13.086c-.264 4.427-1.78 7.724-4.512 9.795-2.118 1.6-4.87 2.414-8.194 2.414zm.138-30.451c-5.463 0-11.818 7-12.4 16.763-.306 5.225 1.358 11.575 11.058 12.15 3.54.212 6.398-.485 8.49-2.07 2.367-1.796 3.698-4.718 3.925-8.69a22.453 22.453 0 0 0-2.821-12.247c-2.113-3.624-4.887-5.716-7.882-5.896l-.37-.01z"/>
        <path stroke="#E6DDAF" stroke-linecap="round" stroke-linejoin="round" stroke-width="2.84" d="M86.25 61.854c.2.957.337 1.925.413 2.9M81.887 53.417a15.278 15.278 0 0 1 3.28 4.945"/>
        <path fill="#E6DDAF" fill-rule="nonzero" d="M4.743 49.096c8.587-.016 15.562 6.932 15.578 15.518-8.587.017-15.561-6.93-15.578-15.518z"/>
        <path fill="#212121" fill-rule="nonzero" d="M20.292 65.362C11.305 65.364 4.014 58.087 4 49.1c0-.417.338-.755.756-.755a16.192 16.192 0 0 1 11.5 4.755 16.182 16.182 0 0 1 4.798 11.511.755.755 0 0 1-.75.75h-.01zM5.5 49.866c.408 7.572 6.474 13.608 14.047 13.98-.407-7.566-6.465-13.6-14.032-13.98H5.5z"/>
        <path fill="#FFF" fill-rule="nonzero" d="M19.31 65.207a13.255 13.255 0 0 1 11.895-14.488c.716 7.286-4.61 13.772-11.895 14.488z"/>
        <path fill="#212121" fill-rule="nonzero" d="M19.315 65.953a.745.745 0 0 1-.745-.676 14.01 14.01 0 0 1 12.568-15.32.745.745 0 0 1 .819.67c.755 7.7-4.87 14.556-12.568 15.32l-.074.006zm11.205-14.39a12.537 12.537 0 0 0-10.513 12.8 12.531 12.531 0 0 0 10.513-12.8z"/>
        <path fill="#212121" fill-rule="nonzero" d="M19.198 75.13a.755.755 0 0 1-.75-.75V64.14c-2.166-5.864-8.822-9.773-8.886-9.81a.75.75 0 1 1 .75-1.3c.296.174 7.291 4.284 9.594 10.73.028.08.042.164.043.248v10.37a.755.755 0 0 1-.75.75z"/>
        <circle cx=".798" cy="50.522" r="1" fill="#E6DDAF" fill-rule="nonzero"/>
        <circle cx="34.044" cy="52.709" r="1" fill="#FFF" fill-rule="nonzero"/>
        <circle cx="12.922" cy="17.085" r="1" fill="#E6DDAF" fill-rule="nonzero"/>
        <path fill="#E6EFFF" fill-rule="nonzero" d="M83.52 28.497a2.32 2.32 0 0 1-2.405 1.468c-1.024-.185-1.093-1.315-2.303-1.659-1.21-.343-2.076.497-2.282.19-.412-.591 1.178-3.48 3.492-3.491 2.007-.011 3.899 2.081 3.497 3.492z"/>
        <circle cx="27.054" cy="47.209" r="1" fill="#FFF" fill-rule="nonzero"/>
        <circle cx="4.897" cy="46.2" r="1" fill="#E6DDAF" fill-rule="nonzero"/>
        <path fill="#E6EFFF" fill-rule="nonzero" d="M28.248 7.211c1.215 1.87-1.706 7.344-4.754 7.243-2.203-.074-4.132-3.006-3.699-3.698.344-.528 1.908.45 2.87-.37.96-.818 0-2.319.823-3.323.967-1.178 3.947-1.109 4.76.148z"/>
    </g>
</svg>
