<svg xmlns="http://www.w3.org/2000/svg" width="114" height="84" viewBox="0 0 114 84">
    <g fill="none" fill-rule="nonzero">
        <circle cx="113.309" cy="50.913" r="1" fill="#FFF"/>
        <circle cx="106.655" cy="45.677" r="1" fill="#FFF"/>
        <path fill="#E6EFFF" d="M81.017 37.805c11.111 8.184 3.758 43.413-7.73 45.818-7.189 1.509-11.967-10.684-22.278-9.22-8.637 1.222-12.424 10.79-16.644 9.134-4.22-1.655-.976-11.65-6.917-15.935-4.376-3.148-8.279 1.333-15.014-2.012-1.157-.578-9.024-4.662-11.322-13.53-.257-1.006-2.913-10.347 1.036-13.194 4.114-2.972 10.18 4.9 16.402 2.681 8.28-2.967 4.185-19.25 14.532-25.954 5.664-3.687 14.416-3.702 18.41.216 5.21 5.126-.83 13.888 3.978 19.184 5.82 6.388 18.128-2.645 25.547 2.812z"/>
        <path fill="#FFF" d="M49.68 40.833v3.722a3.254 3.254 0 0 1-3.254 3.255h-6.981v1.111a2.771 2.771 0 0 1-3.28 2.726l-4.557-.845a3.828 3.828 0 0 1-2.867-5.15l3.134-8.048V.714h12.72v35.029c0 1.01.82 1.83 1.831 1.83a3.254 3.254 0 0 1 3.255 3.26z"/>
        <path fill="#50C9C3" d="M38.524 50.983a2.766 2.766 0 0 1-2.359.664l-4.557-.845a3.828 3.828 0 0 1-2.867-5.15l3.134-8.048V25.195h5.92v12.379l-3.134 8.048a3.828 3.828 0 0 0 2.867 5.18l.996.181z"/>
        <path fill="#E6DDAF" d="M31.875.714h5.92V25.2h-5.92z"/>
        <path fill="#212121" d="M36.678 52.407c-.216 0-.431-.02-.644-.06l-4.557-.85a4.527 4.527 0 0 1-3.405-6.112l3.114-7.942V.724a.714.714 0 0 1 1.428 0v36.85a.78.78 0 0 1-.05.261l-3.134 8.048a3.109 3.109 0 0 0 2.334 4.19l4.557.85a2.057 2.057 0 0 0 2.435-2.012V47.81a.72.72 0 0 1 .714-.715h6.956a2.545 2.545 0 0 0 2.515-2.515v-3.722a2.545 2.545 0 0 0-2.515-2.545 2.55 2.55 0 0 1-2.545-2.545V.714a.714.714 0 0 1 1.429 0v35.029a1.112 1.112 0 0 0 1.116 1.116 3.974 3.974 0 0 1 3.969 3.974v3.722a3.974 3.974 0 0 1-3.969 3.969H40.16v.397a3.486 3.486 0 0 1-3.48 3.486z"/>
        <path fill="#FFF" d="M92.651 66.43l-3.792 7.36-47.367-7.842H34.45a5.81 5.81 0 0 1-5.83-5.805V57.2a2.726 2.726 0 0 1 2.727-2.726h7.419c.392.02.765.17 1.061.428a1.006 1.006 0 0 0 1.665-.78v-1.137a1.851 1.851 0 0 1 1.846-1.846h2.882c1.962 0 3.969 4.26 4.89 6.54a2.716 2.716 0 0 0 2.011 1.644l39.53 7.107z"/>
        <path fill="#50C9C3" d="M90.66 70.298l-1.801 3.491-47.367-7.841H34.45a5.81 5.81 0 0 1-5.83-5.805V57.2a2.726 2.726 0 0 1 2.727-2.726h2.912v2.812a5.81 5.81 0 0 0 5.81 5.81h7.041l43.55 7.202z"/>
        <path fill="#212121" d="M88.859 74.503h-.116l-47.306-7.841H34.43a6.539 6.539 0 0 1-6.539-6.54v-2.937a3.446 3.446 0 0 1 3.44-3.44h7.435a2.45 2.45 0 0 1 1.509.578c.098.083.236.101.352.046a.277.277 0 0 0 .16-.262V52.97a2.56 2.56 0 0 1 2.556-2.555h2.882c1.79 0 3.657 2.344 5.533 6.967.256.64.829 1.1 1.51 1.212l39.51 7.117a.71.71 0 0 1 .578.825.72.72 0 0 1-.83.578l-39.51-7.097a3.405 3.405 0 0 1-2.566-2.077c-1.83-4.487-3.42-6.081-4.225-6.081h-2.887c-.625 0-1.132.506-1.132 1.131v1.137a1.7 1.7 0 0 1-.96 1.54 1.755 1.755 0 0 1-1.857-.202 1.061 1.061 0 0 0-.623-.276h-7.42c-1.11 0-2.011.9-2.011 2.011v2.938a5.1 5.1 0 0 0 5.095 5.1h7.183l47.362 7.842a.714.714 0 0 1-.116 1.418v.005z"/>
        <path fill="#FFF" d="M94.985 59.786v3.893L61.838 57.14l-7.545-1.343a3.521 3.521 0 0 1-2.45-3.345l.066-1.202a3.144 3.144 0 0 1 3.139-2.968h2.293a3.144 3.144 0 0 1 3.064 2.455 3.204 3.204 0 0 0 2.515 2.445l32.065 6.604z"/>
        <path fill="#50C9C3" d="M94.98 59.816v3.893l-1.695-.337a1.967 1.967 0 0 0-1.509-2.575L81.4 58.976l-20.155-3.52a3.224 3.224 0 0 1-2.485-2.445 3.134 3.134 0 0 0-3.058-2.46h-2.32a3.129 3.129 0 0 0-1.403.327 3.144 3.144 0 0 1 3.104-2.606h2.258a3.139 3.139 0 0 1 3.094 2.435 3.214 3.214 0 0 0 2.515 2.475l18.535 3.832 13.495 2.802z"/>
        <path fill="#212121" d="M94.985 64.383a.669.669 0 0 1-.14 0l-33.143-6.539-7.545-1.348h-.085a4.2 4.2 0 0 1-2.953-4.024l.066-1.242a3.858 3.858 0 0 1 3.853-3.642h2.303a3.838 3.838 0 0 1 3.763 3.018 2.515 2.515 0 0 0 1.931 1.902l32.071 6.599a.714.714 0 1 1-.287 1.398l-32.07-6.6a3.928 3.928 0 0 1-3.018-2.987 2.42 2.42 0 0 0-2.39-1.916h-2.318a2.43 2.43 0 0 0-2.425 2.293l-.07 1.202a2.782 2.782 0 0 0 1.916 2.611l7.475 1.333 33.197 6.539a.71.71 0 0 1 .564.835.72.72 0 0 1-.695.568z"/>
        <path fill="#E6EFFF" d="M67.607 31.553c-2.716.845-5.03-2.073-5.774-3.018-2.143-2.701-2.807-6.755-1.59-7.545.584-.382 1.218.221 4.628 1.786 4.381 2.012 5.417 1.89 5.775 3.018a4.612 4.612 0 0 1-3.039 5.759zM12.997 30.366c1.047-.181 1.54.659 2.867.427 1.474-.256 1.811-1.509 2.556-1.378 1.096.211 2.424 3.325.95 5.427-.412.584-.93.539-5.427.946-2.912.267-3.36.327-3.672-.04-.996-1.162.674-5.035 2.726-5.382z"/>
        <circle cx="39.933" cy="70.077" r="1" fill="#FFF"/>
        <circle cx="55.339" cy="42.609" r="1" fill="#FFF"/>
        <circle cx="60.636" cy="45.184" r="1" fill="#FFF"/>
        <circle cx="24.949" cy="55.983" r="1" fill="#FFF"/>
    </g>
</svg>
