<svg xmlns="http://www.w3.org/2000/svg" width="121" height="84" viewBox="0 0 121 84">
    <g fill="none" fill-rule="evenodd">
        <circle cx="120.061" cy="51.333" r="1" fill="#FFF" fill-rule="nonzero"/>
        <circle cx="112.848" cy="44.97" r="1" fill="#FFF" fill-rule="nonzero"/>
        <path fill="#E6EFFF" fill-rule="nonzero" d="M78.416 27.966c6.304 8.259 15.5 4.982 18.356 10.192 6.374 11.617-26.673 51.124-46.457 45.25-9.43-2.804-7.845-13.55-22.314-20.834-12.313-6.2-21.679-2.553-26.152-9.728-3.29-5.287-1.629-12.788.651-17.383C9.015 22.528 21.046 24.52 35.075 13.959 44.023 7.198 45.82 4.231 49.23 2.08 51.303.774 52.112.545 52.84.338c6.744-1.764 14.752 3.659 19.003 9.614 5.472 7.584 1.748 11.689 6.574 18.014z"/>
        <path fill="#FFF" fill-rule="nonzero" d="M63.623 22.327a12.786 12.786 0 0 1-.929 5.409 45.021 45.021 0 0 0-3.186 17.063v3.488a27.291 27.291 0 0 1-5.624 16.604 1.77 1.77 0 0 1-1.167.442 1.84 1.84 0 0 1-1.309-.547 1.861 1.861 0 0 1-.536-1.32v-.038c0-9.525-3.98-17.286-8.865-17.286s-8.88 7.761-8.88 17.286v.039a1.84 1.84 0 0 1-1.051 1.686 1.821 1.821 0 0 1-1.962-.262 27.33 27.33 0 0 1-5.619-16.604v-3.494a45.35 45.35 0 0 0-3.197-17.09 12.773 12.773 0 0 1 3.154-14.162 12.6 12.6 0 0 1 14.298-1.978 7.2 7.2 0 0 0 6.514 0 12.592 12.592 0 0 1 12.088.362 12.733 12.733 0 0 1 6.265 10.402h.006z"/>
        <path fill="#212121" fill-rule="nonzero" d="M31.252 66.182a2.559 2.559 0 0 1-1.678-.63.76.76 0 0 1-.098-.115 28.192 28.192 0 0 1-5.817-17.126V44.81a44.586 44.586 0 0 0-3.149-16.836 13.494 13.494 0 0 1-.98-5.71 13.54 13.54 0 0 1 6.662-11.084 13.41 13.41 0 0 1 12.883-.382 6.455 6.455 0 0 0 5.855 0 13.41 13.41 0 0 1 12.872.381 13.54 13.54 0 0 1 6.668 11.07A13.533 13.533 0 0 1 63.48 28a44.234 44.234 0 0 0-3.138 16.814v3.497a28.33 28.33 0 0 1-5.807 17.126.759.759 0 0 1-.114.115 2.542 2.542 0 0 1-1.673.63 2.657 2.657 0 0 1-1.868-.783 2.623 2.623 0 0 1-.757-1.866c0-9.015-3.72-16.595-8.128-16.595-4.407 0-8.133 7.58-8.133 16.556a2.65 2.65 0 0 1-.749 1.892 2.625 2.625 0 0 1-1.865.796h.005zm-.62-1.768a1.02 1.02 0 0 0 1.089.11c.387-.172.634-.56.626-.986-.022-10.202 4.21-18.155 9.658-18.155 5.448 0 9.675 7.953 9.675 18.111-.01.297.1.586.305.8.205.213.489.334.784.333a1 1 0 0 0 .616-.213 26.737 26.737 0 0 0 5.447-16.103v-3.497a45.817 45.817 0 0 1 3.269-17.405c.662-1.613.964-3.353.882-5.096-.314-6.171-5.226-11.102-11.369-11.412a11.795 11.795 0 0 0-5.992 1.281 8.006 8.006 0 0 1-7.261 0 11.875 11.875 0 0 0-13.454 1.88 12.015 12.015 0 0 0-2.964 13.32 46.169 46.169 0 0 1 3.268 17.427v3.502a26.545 26.545 0 0 0 5.447 16.103h-.027z"/>
        <path stroke="#E6DDAF" stroke-linecap="round" stroke-linejoin="round" stroke-width="2.84" d="M31.394 18.667c5.299 0 5.299 5.09 10.603 5.09 5.305 0 5.305-5.09 10.61-5.09"/>
        <circle cx="18.242" cy="9.758" r="1.273" fill="#E6DDAF" fill-rule="nonzero"/>
        <circle cx="91.212" cy="25.879" r="1.273" fill="#E6DDAF" fill-rule="nonzero"/>
        <circle cx="23.758" cy="3.394" r="1" fill="#E6DDAF" fill-rule="nonzero"/>
        <circle cx="70.424" cy="40.727" r="18.667" fill="#FFF" fill-rule="nonzero" opacity=".3"/>
        <circle cx="70.424" cy="40.727" r="15.273" fill="#50C9C3" fill-rule="nonzero" opacity=".5"/>
        <path fill="#50C9C3" fill-rule="nonzero" d="M76.373 58.505l5.433-2.922 6.108 11.406-5.433 2.922z"/>
        <path fill="#212121" fill-rule="nonzero" d="M70.458 60.242c-9.55.016-17.71-6.882-19.281-16.302-1.572-9.42 3.905-18.592 12.943-21.678 9.039-3.086 18.983.822 23.501 9.235a19.517 19.517 0 0 1-17.163 28.745zm-.06-37.49a17.97 17.97 0 1 0-9.183 33.4 17.974 17.974 0 0 0 21.627-2.432 17.97 17.97 0 0 0 3.427-21.49 18.06 18.06 0 0 0-15.87-9.478z"/>
        <path stroke="#FFF" stroke-linecap="round" stroke-linejoin="round" stroke-width="2.84" d="M72.97 28c3.977.638 7.432 3.151 9.333 6.788"/>
        <path fill="#FFF" fill-rule="nonzero" d="M87.543 67.03l2.097 4.026c.697 1.497.137 3.302-1.27 4.09-1.406.787-3.159.277-3.97-1.156l-2.097-4.02 5.24-2.94z"/>
        <path fill="#212121" fill-rule="nonzero" d="M87.01 76.364a3.836 3.836 0 0 1-1.09-.167 3.765 3.765 0 0 1-2.236-1.845l-8.078-15.196a.766.766 0 0 1 .306-1.032.751.751 0 0 1 1.023.308l8.077 15.201c.285.534.769.932 1.345 1.105a2.251 2.251 0 0 0 2.412-.735 2.302 2.302 0 0 0 .245-2.531L80.93 56.276a.766.766 0 0 1 .305-1.033.751.751 0 0 1 1.023.309l8.083 15.201a3.845 3.845 0 0 1-.089 3.753 3.772 3.772 0 0 1-3.232 1.858h-.01z"/>
        <path fill="#E6EFFF" fill-rule="nonzero" d="M86.348 21.926c-.31.316-.79.045-2.78-.503-3.158-.864-3.558-.615-4.042-1.197-1.405-1.695-.205-6.259 1.553-6.626 1.38-.288 2.837 2.05 3.764 3.536.842 1.35 2.216 4.056 1.505 4.79zM32.967 70.29c.463.93-.457 2.394-1.383 3.161-2.347 1.946-7.383 1.59-8.989-1.313-1.511-2.702.519-6.733 1.93-6.804.981-.054.998 1.854 3.161 3.2 2.398 1.502 4.668.556 5.281 1.756z"/>
    </g>
</svg>
