<svg xmlns="http://www.w3.org/2000/svg" width="79" height="84" viewBox="0 0 79 84">
    <g fill="none" fill-rule="nonzero">
        <path fill="#E6EFFF" d="M77.758 34.514C74.86 41.617 66.56 39.432 62.15 46.672c-5.324 8.747 3.748 16.91-1.418 26.96-3.56 6.93-12.38 11.806-18.343 9.932-5.965-1.874-4.384-9.171-11.45-17.414-10.265-12.002-22.445-6.825-28.35-17.026C-2.322 40.698.183 27.18 7.045 22.35c6.3-4.404 12.038 1.418 20.879-3.04 8.757-4.42 6.888-12.048 14.49-15.403 9.529-4.2 23.772 2.767 30.707 12.563 1.486 2.142 7.597 10.773 4.636 18.044z"/>
        <path fill="#FFF" d="M65.788 37.879c0 11.602-2.1 27.242-13.65 25.861-2.441-.294-4.625-.64-6.578-1.05 0 0-2.626 7.051-.867 10.5L18.16 66.486c7.15-6.374 5.591-23.158 5.591-23.158a4.683 4.683 0 0 1-.835.168 6.242 6.242 0 0 1-6.825-4.725c-1.318-5.434.31-7.539 2.232-8.29a4.646 4.646 0 0 1 1.254-.299 5.57 5.57 0 0 1 4.331 1.938l5.844 6.73s6.73-6.352 5.622-17.236c-.929-9.088 20.601 3.617 29.715 4.253.467 3.987.7 7.998.699 12.012z"/>
        <path fill="#FFF" d="M19.593 30.156a4.888 4.888 0 0 1 4.127 1.696l.204.241"/>
        <path fill="#212121" d="M53.55 64.575c-.495-.002-.99-.031-1.48-.09-20.056-2.398-22.901-8.861-23.043-14.867a.74.74 0 0 1 .73-.762.756.756 0 0 1 .761.725c.22 9.54 10.574 12.075 21.73 13.424 2.935.352 5.308-.43 7.245-2.383 8.216-8.306 4.914-34.393 4.883-34.65a.745.745 0 0 1 1.475-.195c.56 4.814.784 9.661.672 14.506-.273 10.463-2.279 17.661-5.97 21.389a9.518 9.518 0 0 1-7.003 2.903z"/>
        <path fill="#50C9C3" d="M29.752 38.85s6.73-6.352 5.617-17.236c-1.113-10.883 29.978 9.482 33.406 2.956 3.428-6.526-1.244-14.459-1.244-19.745 0-5.287-5.287.777-18.344-3.108-13.056-3.885-23.625 4.662-26.423 8.862-5.76 2.021-10.579 6.373-6.069 20.36h.042a6.436 6.436 0 0 1 7.597 1.611l5.418 6.3z"/>
        <path fill="#212121" d="M29.752 39.611h-.037a.745.745 0 0 1-.525-.257l-5.828-6.773a4.856 4.856 0 0 0-5.286-1.401c-.625.22-1.05.43-1.05.43a.74.74 0 0 1-1.05-.44c-4.857-15.074 1.176-19.352 6.3-21.21 3.202-4.568 14.107-12.827 27.11-8.957a30.76 30.76 0 0 0 13.86.992c2.001-.247 3.319-.415 4.2.367.741.641.804 1.712.804 2.463 0 1.706.525 3.78 1.092 5.969 1.15 4.483 2.452 9.56.063 14.117-1.885 3.602-9.45.835-17.504-2.1-6.2-2.262-13.224-4.825-15.256-3.244-.173.136-.698.525-.525 1.968 1.134 11.115-5.565 17.598-5.848 17.85a.756.756 0 0 1-.52.226zM19.677 29.4a6.353 6.353 0 0 1 4.814 2.195l5.282 6.153a21.42 21.42 0 0 0 4.877-16.06c-.152-1.486.226-2.594 1.123-3.292 2.678-2.1 9.477.394 16.68 3.019 6.415 2.341 14.395 5.25 15.676 2.809 2.1-4.053.898-8.836-.189-13.057-.582-2.29-1.139-4.447-1.139-6.342 0-.704-.105-1.166-.31-1.344-.383-.341-1.575-.194-3.034 0a32.146 32.146 0 0 1-14.464-1.05c-12.416-3.675-22.775 4.331-25.594 8.557a.761.761 0 0 1-.373.294c-9.098 3.187-8.195 11.12-5.869 18.643l.42-.158a6.18 6.18 0 0 1 2.1-.367zM44.693 73.967a.75.75 0 0 1-.666-.41c-1.864-3.722.724-10.814.834-11.114a.746.746 0 0 1 1.397.526c0 .068-2.473 6.788-.903 9.932a.74.74 0 0 1-.662 1.05v.016z"/>
        <path fill="#212121" d="M18.16 67.231a.746.746 0 0 1-.525-1.301c5.906-5.25 5.601-18.276 5.407-21.704h-.058a6.972 6.972 0 0 1-7.607-5.308c-1.48-6.121.64-8.358 2.683-9.156a5.55 5.55 0 0 1 6.221 1.607l6.038 7.014a.751.751 0 0 1-1.129.992l-6.038-7.035a4.058 4.058 0 0 0-4.546-1.192c-2.168.846-2.767 3.345-1.78 7.424a5.486 5.486 0 0 0 5.996 4.2c.236-.03.47-.077.698-.142a.73.73 0 0 1 .64.084c.183.119.305.31.337.525.063.704 1.501 17.241-5.844 23.788a.745.745 0 0 1-.493.204z"/>
        <circle cx="27.788" cy="58.963" r="1.27" fill="#E6DDAF"/>
        <circle cx="49.508" cy="57.687" r="1.27" fill="#E6DDAF"/>
        <circle cx="30.544" cy="69.232" r="1.27" fill="#E6DDAF"/>
        <circle cx="38.939" cy="65.63" r="1.27" fill="#E6DDAF"/>
        <circle cx="26.014" cy="64.864" r="1" fill="#E6DDAF"/>
        <circle cx="33.159" cy="62.701" r="1" fill="#E6DDAF"/>
        <circle cx="54.295" cy="60.233" r="1" fill="#E6DDAF"/>
        <circle cx="52.048" cy="53.881" r="1" fill="#E6DDAF"/>
        <circle cx="56.805" cy="56.416" r="1" fill="#E6DDAF"/>
        <circle cx="44.095" cy="56.416" r="1" fill="#E6DDAF"/>
        <circle cx="33.159" cy="47.78" r="1" fill="#E6DDAF"/>
        <circle cx="38.309" cy="53.114" r="1.27" fill="#E6DDAF"/>
        <circle cx="43.323" cy="50.573" r="1.27" fill="#E6DDAF"/>
        <path fill="#E6EFFF" d="M69.877 56.086c-1.921-1.738-1.769-5.465.29-7.35 2.351-2.174 6.74-1.313 7.35.289.377.976-1.99 1.695-2.321 4.095-.226 1.653.703 2.373.194 3.181-.735 1.17-3.838 1.307-5.513-.215zM8.815 14.663c-1.003-.351-1.643-1.79-1.517-2.971.362-3.402 7.208-5.55 8.19-4.342.787 1.05-2.205 4.484-2.363 4.652-.94 1.081-2.798 3.191-4.31 2.661z"/>
    </g>
</svg>
