<svg xmlns="http://www.w3.org/2000/svg" width="99" height="80" viewBox="0 0 99 80">
    <g fill="none" fill-rule="nonzero">
        <path fill="#E6EFFF" d="M10.355 60.186C-3.595 53.52-2.924 13.216 9.21 8.152c7.589-3.172 15.414 9.234 26.445 5.454C44.901 10.439 47.06-.88 52.046.056c4.985.936 3.526 12.609 10.962 16.068 5.477 2.546 8.829-3.206 16.941-.93 1.397.395 10.913 3.229 15.307 12.502.519 1.036 5.386 10.772 1.645 14.732-3.904 4.135-12.23-3.245-18.591.507-8.45 4.986-.564 22.04-10.513 31.623-5.459 5.245-15.082 7.104-20.282 3.634-6.81-4.507-2.01-15.448-8.416-20.282C31.3 52.1 19.662 64.63 10.355 60.186z"/>
        <path fill="#E6EFFF" d="M26.423 64.225c2.816-1.498 5.943 1.229 6.991 2.13 2.924 2.518 4.507 6.84 3.335 7.983-.563.563-1.38 0-5.464-.992-5.24-1.29-6.355-.94-6.992-2.13a5.172 5.172 0 0 1 2.13-6.99zM66.304 4.332c1.127-.338 1.809.53 3.25.09 1.607-.49 1.804-1.937 2.654-1.881 1.251.084 3.15 3.38 1.792 5.904-.372.704-.958.727-5.899 1.792-3.205.693-3.69.822-4.09.456-1.267-1.16.062-5.69 2.293-6.36z"/>
        <path fill="#FFF" d="M77.865 33.617c-4.817 13.386-19.037 23.098-35.826 23.098-16.788 0-30.985-9.7-35.825-23.098C11.025 20.23 25.245 10.518 42.04 10.518c16.795 0 31.009 9.713 35.826 23.099z"/>
        <path fill="#212121" d="M42.04 57.504c-16.8 0-31.5-9.493-36.58-23.617a.811.811 0 0 1 0-.563c5.07-14.13 19.78-23.617 36.58-23.617 16.8 0 31.492 9.487 36.58 23.617a.811.811 0 0 1 0 .563c-5.088 14.124-19.786 23.617-36.58 23.617zM7.064 33.617c4.94 13.34 18.958 22.287 34.974 22.287 16.017 0 30.029-8.946 34.975-22.287C72.068 20.282 58.056 11.33 42.04 11.33c-16.016 0-30.033 8.952-34.974 22.287z"/>
        <circle cx="42.039" cy="33.617" r="16.541" fill="#50C9C3"/>
        <path fill="#212121" d="M42.04 50.958c-9.578 0-17.341-7.764-17.341-17.341 0-9.577 7.763-17.34 17.34-17.34 9.578 0 17.341 7.763 17.341 17.34-.012 9.572-7.769 17.328-17.34 17.34zm0-33.088c-8.694-.003-15.745 7.04-15.753 15.734-.007 8.693 7.033 15.748 15.726 15.76 8.694.01 15.752-7.025 15.767-15.719 0-8.699-7.042-15.756-15.74-15.775z"/>
        <circle cx="42.039" cy="33.617" r="9.504" fill="#212121"/>
        <circle cx="49.149" cy="28.873" r="4.823" fill="#CAEEEC"/>
        <circle cx="80.558" cy="50.158" r="1.223" fill="#E6DDAF"/>
        <circle cx="30.411" cy="6.715" r="1.223" fill="#E6DDAF"/>
        <circle cx="79.504" cy="61.685" r="1.054" fill="#E6DDAF"/>
    </g>
</svg>
