<svg xmlns="http://www.w3.org/2000/svg" width="73" height="84" viewBox="0 0 73 84">
    <g fill="none" fill-rule="nonzero">
        <path fill="#E6EFFF" d="M68.638 40.66c-4.901 6.328-10.864 3.659-17.063 10.55-9.178 10.208-1.881 22.483-8.683 27.76C33.08 86.577 2.999 72.632 1.03 56.553c-.68-5.535 2.54-6.53 4.009-15.434 2.943-17.857-7.4-29.73-3.726-32.724 4.489-3.654 17.934 15.635 34.1 13.25C49.988 19.53 53.734 1.694 61.84 3.431c8.89 1.912 15.502 26.004 6.798 37.228z"/>
        <path fill="#FFF" d="M69.055 32.368a17.192 17.192 0 0 1-4.344-8.534c-1.03-5.395-10.183-7.941-14.976-4.194-4.792 3.746-11.853 16.027.902 33.1 3.607 9.884 11.853 11.528 14.527 9.43 2.675-2.097 3.891-5.998 3.891-5.998a23.417 23.417 0 0 1 0-23.814v.01z"/>
        <path fill="#50C9C3" d="M52.884 57.14c0 .047.036.093.051.135a11.093 11.093 0 0 1-.448-.68l.397.546zM64.695 23.834c.066.344.143.687.232 1.031-3.22-2.865-9.317-3.607-12.94-.799-3.968 3.092-9.482 12.07-4.014 24.762-8.993-15.017-2.67-25.715 1.747-29.163 4.792-3.772 13.93-1.226 14.975 4.17zM69.055 32.368c-.113.196-.242.423-.376.675a17.063 17.063 0 0 1-1.03-2.396c.417.614.888 1.19 1.406 1.721z"/>
        <path fill="#50C9C3" d="M52.487 56.594a40.825 40.825 0 0 1-4.514-7.792 47.104 47.104 0 0 0 2.649 3.938 20.315 20.315 0 0 0 1.865 3.854z"/>
        <path fill="#212121" d="M62.356 63.706a9.276 9.276 0 0 1-2.335-.314c-1.937-.516-6.756-2.438-9.662-9.37a10.307 10.307 0 0 0-1.072-1.906c-5.19-7.282-7.38-14.703-6.36-21.381.877-5.623 3.84-9.714 6.344-11.668 2.665-2.06 6.808-2.525 10.55-1.128 3.05 1.128 5.112 3.241 5.596 5.767a16.522 16.522 0 0 0 4.123 8.147.738.738 0 1 1-1.031 1.056 17.83 17.83 0 0 1-4.556-8.925c-.381-1.974-2.128-3.72-4.669-4.67-3.226-1.205-6.895-.84-9.137.913-2.241 1.752-4.983 5.54-5.776 10.724-.964 6.303 1.144 13.327 6.09 20.32.486.684.898 1.419 1.227 2.19 2.65 6.323 6.957 8.06 8.684 8.513 1.726.454 3.427.32 4.323-.38 2.49-1.933 3.608-5.592 3.649-5.628a.732.732 0 1 1 1.397.433c-.052.164-1.299 4.122-4.123 6.348a5.282 5.282 0 0 1-3.262.959z"/>
        <path fill="#212121" d="M63.242 37.712c-2.118 0-2.468-4.122-2.525-5.349a6.55 6.55 0 0 0-2.061-4.159 4.494 4.494 0 0 0-3.608-.912c-4.39.577-4.452 6.844-4.452 6.906a.737.737 0 0 1-.732.732.732.732 0 0 1-.727-.732c0-2.628 1.196-7.73 5.72-8.359a5.9 5.9 0 0 1 4.752 1.242c1.984 1.65 2.54 4.319 2.577 5.21.103 2.185.716 3.958 1.067 3.958a.732.732 0 1 1 0 1.463h-.01z"/>
        <path fill="#212121" d="M63.242 49.746a.752.752 0 0 1-.36-.093c-.248-.145-6.092-3.51-7.071-9.426-.608-3.68.81-7.467 4.205-11.27a.728.728 0 1 1 1.088.969c-3.092 3.458-4.38 6.838-3.85 10.054.855 5.22 6.292 8.369 6.349 8.4a.732.732 0 0 1-.36 1.366z"/>
        <path fill="#E6DDAF" d="M11.636.732s-.273 24.36-4.638 27.684C3.257 31.28-.397 38.053 4.18 41.083a5.555 5.555 0 0 0 4.252.752c1.577-.345 4.06-.665 5.267.376 1.85 1.588 4.23 3.608 7.771 0 .845-1.18 3.726-.768 5.509-.376 1.393.33 2.86.113 4.097-.608 4.875-2.963 1.17-9.884-2.639-12.79C24.086 25.111 23.798.751 23.798.751"/>
        <path fill="#FFF" d="M13.497.732s-.186 24.36-3.19 27.684c-2.603 2.865-5.154 9.637-1.964 12.667a2.912 2.912 0 0 0 2.953.752c1.093-.345 2.82-.665 3.654.376 1.283 1.588 2.937 3.608 5.396 0 .587-1.18 2.576-.768 3.823-.376.983.317 2.06.085 2.824-.608 3.381-2.963.81-9.884-1.834-12.79-3-3.345-3.21-27.705-3.21-27.705"/>
        <path fill="#212121" d="M7.014 42.938a.84.84 0 0 1-.16 0c-3.829-.866-5.055-2.948-5.406-4.545-.783-3.566 1.99-8.168 5.123-10.565C9.905 25.288 10.822 7.4 10.905.721A.727.727 0 0 1 11.636 0a.732.732 0 0 1 .732.737c-.03 2.53-.407 24.824-4.911 28.261-2.71 2.061-5.23 6.127-4.581 9.08.38 1.716 1.824 2.87 4.292 3.417a.732.732 0 0 1-.154 1.443zM28.436 42.938a.732.732 0 0 1-.16-1.443c2.474-.546 3.917-1.7 4.293-3.417.655-2.953-1.87-7.013-4.576-9.08-4.504-3.437-4.885-25.73-4.911-28.261A.732.732 0 0 1 23.803 0c.4 0 .727.321.732.721.072 6.7 1 24.567 4.334 27.112 3.144 2.392 5.916 6.994 5.143 10.56-.35 1.597-1.546 3.68-5.4 4.53l-.176.015z"/>
        <path fill="#212121" d="M17.578 45.02a5.576 5.576 0 0 1-4.458-2.366c-2.504-3.267-6.75-4.122-6.792-4.122a.733.733 0 1 1 .284-1.438c.196.041 4.823.98 7.668 4.69 1.242 1.618 2.664 1.86 3.607 1.777a3.752 3.752 0 0 0 2.912-1.674c1.03-1.995 3.88-4.803 6.88-4.803a.732.732 0 1 1 0 1.463c-2.366 0-4.731 2.402-5.586 4.025-.66 1.273-2.34 2.262-4.056 2.427-.155.01-.304.02-.459.02z"/>
        <path fill="#E6DDAF" d="M31.853 62.356a4.123 4.123 0 1 1-7.673-2.19 7.684 7.684 0 0 0 1.113-4.072V51.4a20.974 20.974 0 0 1 4.823 0v4.725a8.101 8.101 0 0 0 1.17 4.123c.375.639.57 1.367.567 2.108z"/>
        <path fill="#FFF" d="M46.066 67.159a14.507 14.507 0 0 1-3.855 9.74c-2.829-3.046-5.916-4.638-8.245-3.757-1.814.68-3.092 2.84-5.978 2.86-3.092 0-4.478-2.448-6.406-3.195-2.37-.917-5.58.752-8.498 3.978a14.491 14.491 0 0 1-3.751-9.626c0-8.07 6.947-14.739 15.944-15.76v4.67a7.684 7.684 0 0 1-1.113 4.07 4.123 4.123 0 0 0-.608 2.536 4.152 4.152 0 0 0 8.297-.32 4.123 4.123 0 0 0-.567-2.097 8.101 8.101 0 0 1-1.17-4.122V51.4c8.998 1.02 15.95 7.689 15.95 15.759z"/>
        <path fill="#212121" d="M42.211 77.63a.732.732 0 0 1-.515-.231c-2.742-2.953-5.524-4.288-7.436-3.572a7.359 7.359 0 0 0-1.675 1.03c-1.103.82-2.474 1.846-4.556 1.861h-.036c-2.21 0-3.674-1.154-4.854-2.061a7.73 7.73 0 0 0-1.783-1.17c-1.954-.752-4.896.696-7.694 3.788a.727.727 0 0 1-.516.242.742.742 0 0 1-.54-.247 15.135 15.135 0 0 1-3.938-10.111c0-8.323 7.137-15.409 16.594-16.491a.742.742 0 0 1 .572.18c.155.14.243.338.242.547v4.669a8.41 8.41 0 0 1-1.226 4.462 3.375 3.375 0 0 0-.516 2.062 3.422 3.422 0 0 0 3.17 3.123 3.417 3.417 0 0 0 3.622-3.355 3.463 3.463 0 0 0-.469-1.732 8.812 8.812 0 0 1-1.283-4.499V51.4a.716.716 0 0 1 .248-.547.727.727 0 0 1 .566-.18c9.462 1.077 16.594 8.163 16.594 16.49a15.146 15.146 0 0 1-4.009 10.225.727.727 0 0 1-.515.242h-.047zm-6.87-5.457c2.062 0 4.464 1.263 6.84 3.638a13.595 13.595 0 0 0 3.169-8.652c0-7.344-6.184-13.636-14.486-14.945v3.89a7.447 7.447 0 0 0 1.066 3.737 4.875 4.875 0 0 1-.876 6.03 4.834 4.834 0 0 1-3.664 1.303 4.87 4.87 0 0 1-3.829-7.395 6.993 6.993 0 0 0 1.03-3.69v-3.834c-8.317 1.289-14.485 7.58-14.485 14.945a13.574 13.574 0 0 0 3.05 8.524c3.093-3.164 6.313-4.494 8.73-3.556a8.524 8.524 0 0 1 2.16 1.381c1.113.87 2.272 1.778 3.978 1.762 1.603 0 2.618-.767 3.69-1.571a8.467 8.467 0 0 1 2.035-1.237 4.478 4.478 0 0 1 1.593-.33z"/>
        <path fill="#96DEDA" d="M42.211 76.899c-.278.314-.572.618-.876.907a19.676 19.676 0 0 1-13.63 5.246 19.645 19.645 0 0 1-13.714-5.329c-.309-.304-.608-.613-.891-.938 2.917-3.226 6.127-4.895 8.498-3.978 1.927.747 3.324 3.21 6.405 3.195 2.881 0 4.164-2.18 5.978-2.86 2.314-.866 5.401.711 8.23 3.757z"/>
        <path fill="#212121" d="M27.705 83.784a20.464 20.464 0 0 1-14.224-5.535 18.1 18.1 0 0 1-.933-.984.727.727 0 0 1 0-.97c3.263-3.607 6.736-5.153 9.302-4.168a8.524 8.524 0 0 1 2.16 1.38c1.113.872 2.272 1.779 3.978 1.763 1.603 0 2.618-.768 3.69-1.572a8.467 8.467 0 0 1 2.035-1.236c2.526-.954 5.819.484 9.024 3.942a.727.727 0 0 1 0 .984c-.289.32-.598.64-.917.943a20.49 20.49 0 0 1-14.115 5.453zm-13.61-6.999l.412.413a19.006 19.006 0 0 0 13.198 5.122A19.067 19.067 0 0 0 40.83 77.3l.376-.37c-2.576-2.613-5.153-3.757-6.967-3.092a7.359 7.359 0 0 0-1.675 1.03c-1.103.82-2.473 1.845-4.555 1.86h-.036c-2.211 0-3.675-1.154-4.855-2.06a7.73 7.73 0 0 0-1.783-1.17c-1.845-.722-4.581.535-7.24 3.287z"/>
        <path fill="#E6EFFF" d="M39.29 9.106c.685 1.902-2.273 5.792-5.793 5.792s-6.478-3.916-5.792-5.792c.608-1.66 4.06-1.773 5.364-1.814.763-.026 5.504-.185 6.22 1.814zM63.072 68.19c.773 2.164-2.577 6.575-6.576 6.575-3.607 0-6.817-3.51-6.58-6.576.144-1.834 1.546-3.88 3.092-4.03 1.139-.108 1.587.861 3.354 1.912 3.515 2.088 6.236.794 6.71 2.118z"/>
    </g>
</svg>
