<svg xmlns="http://www.w3.org/2000/svg" width="89" height="84" viewBox="0 0 89 84">
    <g fill="none" fill-rule="evenodd">
        <path fill="#E6EFFF" fill-rule="nonzero" d="M73.987 46.917c.276.466-.177.994-1.373 3.305-1.913 3.679-1.741 4.23-2.545 4.672-2.33 1.288-7.271-1.422-7.185-3.679.06-1.771 3.176-2.955 5.156-3.678 1.796-.724 5.31-1.693 5.947-.62zM23.502 75.416c.999.797.797 2.906.208 4.243-1.484 3.39-7.1 5.616-10.423 3.219-3.066-2.244-3.066-7.762-1.576-8.584 1.03-.564 2.078 1.545 5.132 1.92 3.427.428 5.365-1.846 6.659-.798z"/>
        <path fill="#E6EFFF" fill-rule="nonzero" d="M88.69 25.139c-1.011 9.099-27.628 9.644-31.116 25.715-1.227 5.696 1.49 8.449-1.227 13.691-3.795 7.223-13.985 11.595-22.624 9.755-1.466-.313-4.844-1.226-12.404-8.063C12.943 58.66.662 47.543 3.427 40.687c2.453-6.07 13.772-1.532 21.57-9.54 8.523-8.743 1.294-20.583 7.677-26.978 11.895-11.876 57.36 8.756 56.017 20.97z"/>
        <path fill="#E6DDAF" fill-rule="nonzero" d="M39.819 37.168l24.4-5.898a4.54 4.54 0 0 1 5.48 3.346l5.898 24.4a4.54 4.54 0 0 1-3.347 5.48l-24.4 5.897a4.54 4.54 0 0 1-5.479-3.346l-5.898-24.4a4.54 4.54 0 0 1 3.346-5.479z"/>
        <path fill="#212121" fill-rule="nonzero" d="M45.489 71.737a3.679 3.679 0 0 1-3.55-2.796l-6.745-27.818a3.679 3.679 0 0 1 2.692-4.408l27.818-6.745a3.642 3.642 0 0 1 4.408 2.692l6.745 27.818a3.679 3.679 0 0 1-2.667 4.451l-27.818 6.745c-.29.058-.588.079-.883.061zM66.587 31.65c-.153.001-.305.018-.454.05l-27.818 6.744c-.494.119-.92.43-1.183.864-.269.432-.35.954-.227 1.447l6.744 27.818a1.925 1.925 0 0 0 2.312 1.41l27.818-6.744a1.913 1.913 0 0 0 1.41-2.311l-6.75-27.819a1.895 1.895 0 0 0-1.852-1.459z"/>
        <path fill="#FFF" fill-rule="nonzero" d="M53.245 39.284a11.87 11.87 0 1 1-3.838 1.686"/>
        <path fill="#212121" fill-rule="nonzero" d="M56.01 63.589a12.76 12.76 0 0 1-7.088-23.343.87.87 0 1 1 .97 1.447 11.036 11.036 0 0 0-4.557 11.724 11.036 11.036 0 1 0 8.112-13.287.867.867 0 1 1-.404-1.686 12.748 12.748 0 1 1 5.984 24.783c-.988.238-2 .36-3.017.362z"/>
        <path fill="#212121" fill-rule="nonzero" d="M53.895 45.624a3.642 3.642 0 0 1-3.538-2.784 3.63 3.63 0 0 1 2.686-4.396.867.867 0 0 1 .404 1.686 1.907 1.907 0 1 0 .895 3.679.865.865 0 0 1 1.049.613.87.87 0 0 1-.613 1.054 3.765 3.765 0 0 1-.883.148z"/>
        <path fill="#212121" fill-rule="nonzero" d="M55.507 44.066a3.01 3.01 0 0 1-2.912-2.293 3.004 3.004 0 0 1 2.213-3.624.877.877 0 0 1 .411 1.705 1.27 1.27 0 0 0-.932 1.52c.08.325.285.605.57.78.28.174.618.23.939.153a.87.87 0 0 1 .41 1.692c-.23.048-.464.071-.699.067zM56.979 57.899a3.164 3.164 0 0 1-2.342-1.043.87.87 0 0 1 1.294-1.165 1.41 1.41 0 0 0 2.415-.613.87.87 0 1 1 1.68.448 3.152 3.152 0 0 1-2.305 2.256 3.36 3.36 0 0 1-.742.117z"/>
        <circle cx="52.013" cy="52.037" r="1.006" fill="#50C9C3" fill-rule="nonzero"/>
        <circle cx="60.161" cy="50.063" r="1.006" fill="#50C9C3" fill-rule="nonzero"/>
        <path fill="#50C9C3" fill-rule="nonzero" d="M29.397 21.588l16.147 9.829-27.096 44.512L2.301 66.1z"/>
        <path fill="#212121" fill-rule="nonzero" d="M18.443 76.796a.87.87 0 0 1-.454-.123l-16.15-9.84a.877.877 0 0 1-.392-.54.846.846 0 0 1 .104-.657l27.095-44.513a.877.877 0 0 1 1.226-.295l16.113 9.829a.877.877 0 0 1 .393.54.852.852 0 0 1-.098.686L19.185 76.397a.865.865 0 0 1-.742.399zM3.495 65.808l14.654 8.921 26.193-43.024-14.654-8.927-26.193 43.03z"/>
        <path fill="#FFF" fill-rule="nonzero" d="M45.538 31.411l-16.144-9.81L43.36 4.047a6.69 6.69 0 0 1 8.713-1.545 6.69 6.69 0 0 1 2.63 8.449l-9.166 20.46z"/>
        <path fill="#212121" fill-rule="nonzero" d="M45.538 32.282a.877.877 0 0 1-.448-.123l-16.15-9.81a.89.89 0 0 1-.405-.613.883.883 0 0 1 .178-.693L42.681 3.507a7.56 7.56 0 0 1 12.814 7.8l-9.16 20.46a.87.87 0 0 1-.797.515zm-14.85-10.926l14.464 8.804 8.761-19.565a5.825 5.825 0 0 0-9.871-6.003L30.688 21.356z"/>
        <path fill="#96DEDA" fill-rule="nonzero" d="M3.807 67.005l13.14 8-1.855 3.047a3.176 3.176 0 0 1-4.364 1.062l-7.715-4.696a3.176 3.176 0 0 1-1.061-4.365l1.855-3.048z"/>
        <path fill="#212121" fill-rule="nonzero" d="M12.367 80.45a4.01 4.01 0 0 1-2.097-.613L2.557 75.17a4.053 4.053 0 0 1-1.84-2.502 3.998 3.998 0 0 1 .479-3.065l1.839-3.066a.865.865 0 0 1 .54-.393.852.852 0 0 1 .656.105l13.133 7.97a.87.87 0 0 1 .294 1.227l-1.839 3.065a4.053 4.053 0 0 1-3.452 1.938zm-1.226-2.072a2.318 2.318 0 0 0 3.17-.773l1.404-2.305-11.65-7.088-1.373 2.299a2.3 2.3 0 0 0-.24 1.747 2.275 2.275 0 0 0 1.043 1.423l7.646 4.697z"/>
        <path fill="#FFF" fill-rule="nonzero" d="M27.292 32.842l9.218 5.61L22.986 60.67l-9.218-5.611z"/>
        <path fill="#212121" fill-rule="nonzero" d="M22.987 61.54a.865.865 0 0 1-.454-.128l-9.222-5.616a.877.877 0 0 1-.392-.54.852.852 0 0 1 .104-.656L26.55 32.386a.87.87 0 0 1 1.226-.288l9.197 5.61a.877.877 0 0 1 .295 1.226l-13.539 22.19a.89.89 0 0 1-.741.417zm-8.026-6.774l7.725 4.708 12.63-20.73-7.725-4.709-12.63 20.73z"/>
        <path stroke="#CAEEEC" stroke-linecap="round" stroke-linejoin="round" stroke-width="2.84" d="M48.469 14.967l-3.47 7.296M51.154 9.314l-1.208 2.544"/>
        <path stroke="#E6DDAF" stroke-linecap="round" stroke-linejoin="round" stroke-width="2.84" d="M24.71 42.276l4.8 2.925M20.963 48.432l4.801 2.918"/>
        <circle cx="20.687" cy="16.377" r="1.551" fill="#E6DDAF" fill-rule="nonzero"/>
        <path fill="#E6DDAF" fill-rule="nonzero" d="M85.478 42.846c0 .446-.177.874-.49 1.19l-.436.435-2.391 2.385-2.386-2.385-.429-.435a1.682 1.682 0 1 1 2.38-2.38l.435.43.429-.43a1.686 1.686 0 0 1 2.875 1.19h.013zM11.926 23.643c0 .445-.177.873-.491 1.19l-.435.434-2.38 2.386-2.384-2.386-.436-.435a1.686 1.686 0 1 1 2.385-2.379l.43.43.435-.43a1.686 1.686 0 0 1 2.876 1.19z"/>
    </g>
</svg>
