<svg xmlns="http://www.w3.org/2000/svg" width="92" height="84" viewBox="0 0 92 84">
    <g fill="none" fill-rule="nonzero">
        <path fill="#E6EFFF" d="M78.558 39.617c-9.673 9.851-21.514 5.091-29.018 15.686-5.875 8.303-1.019 14.661-6.42 19.732C33.254 84.295 3.69 75.6.29 62.24c-1.766-6.938 5.045-9.163 7.433-22.624C10.64 23.164 2.25 16.291 6.995 9.271c3.36-4.944 9.444-4.287 36.145-5.091 31.707-.932 37.001-2.27 40.885 2.545 6.232 7.698 3.111 24.146-5.467 32.892zM89.345 59.849c-.957 2.387-4.26 10.757-10.757 10.757-7.127 0-12.04-8.191-10.752-10.757.601-1.202 2.215-.474 4.623-1.94 3.88-2.362 2.907-6.216 6.109-8.817 3.085-2.485 8.741-2.856 11.2-.204 2.795 2.943.57 8.492-.423 10.96z"/>
        <rect width="49.529" height="82.519" x="20.837" y=".723" fill="#FFF" rx="24.765"/>
        <path fill="#50C9C3" d="M70.33 59.783a25.22 25.22 0 0 1-.269 2.576c-22.97 13.816-41.48 4.846-48.949-.163a24.9 24.9 0 0 1-.275-3.717v-5.737s19.447 21.83 49.494 7.04z"/>
        <path fill="#FFF" d="M70.061 62.359C68.15 74.42 57.73 83.289 45.517 83.249c-12.213-.041-22.573-8.978-24.405-21.053 7.468 5.004 25.979 13.98 48.95.163z"/>
        <path fill="#FFF" d="M70.361 25.485V58.48c0 .438 0 .87-.03 1.304-30.036 14.763-49.494-7.041-49.494-7.041V25.485C20.837 11.81 31.923.723 45.6.723s24.762 11.086 24.762 24.762z"/>
        <path fill="#E6DDAF" d="M70.361 25.887v4.618c-.147 26.89-34.796 26.3-46.042 25.398a29.761 29.761 0 0 1-3.482-3.161v-1.833s49.351 7.082 49.524-25.022z"/>
        <path fill="#FFF" d="M70.361 30.505v28c0 .438 0 .87-.03 1.303-22.563 11.103-39.15 1.563-46.012-3.88 11.246.876 45.895 1.467 46.042-25.423z"/>
        <path fill="#FFF" d="M70.361 25.485v.402C70.188 57.991 20.837 50.91 20.837 50.91V25.455C20.837 11.779 31.923.692 45.6.692S70.361 11.78 70.361 25.455v.03z"/>
        <path fill="#212121" d="M45.6 41.898A17.732 17.732 0 0 1 39.443 7.54a.723.723 0 0 1 .51 1.354C32.042 11.83 27.683 20.32 29.907 28.46s10.296 13.234 18.6 11.739c8.305-1.495 14.094-9.084 13.34-17.489-.754-8.404-7.8-14.842-16.239-14.835a.723.723 0 0 1 0-1.446c9.675.164 17.432 8.053 17.432 17.729 0 9.676-7.757 17.565-17.432 17.729l-.01.01z"/>
        <path fill="#212121" d="M45.6 15.823a4.694 4.694 0 1 1 0-9.383.723.723 0 1 1 0 1.446 3.248 3.248 0 0 0 0 6.496.723.723 0 1 1 0 1.44z"/>
        <path fill="#212121" d="M48.16 14.173a3.777 3.777 0 0 1 0-7.555.723.723 0 1 1 0 1.44 2.327 2.327 0 1 0 0 4.654.723.723 0 1 1 0 1.446v.015zM45.6 33.926a3.996 3.996 0 0 1-3.508-2.093.723.723 0 1 1 1.267-.687 2.545 2.545 0 0 0 4.48 0 .723.723 0 1 1 1.268.687 3.986 3.986 0 0 1-3.508 2.093z"/>
        <circle cx="39.597" cy="24.487" r="1.441" fill="#50C9C3"/>
        <circle cx="51.601" cy="24.487" r="1.441" fill="#50C9C3"/>
        <path fill="#212121" d="M45.6 83.964C31.53 83.948 20.13 72.547 20.113 58.48V25.485C20.114 11.41 31.524 0 45.6 0s25.485 11.41 25.485 25.485V58.48C71.07 72.55 59.668 83.95 45.6 83.964zm0-82.518c-13.272.014-24.028 10.768-24.045 24.04v32.993c0 13.28 10.765 24.045 24.044 24.045 13.28 0 24.045-10.765 24.045-24.045V25.485C69.627 12.214 58.87 1.46 45.599 1.445z"/>
        <path fill="#212121" d="M31.9 52.304a89.09 89.09 0 0 1-11.17-.667.723.723 0 1 1 .209-1.43c.28.04 28.224 3.879 41.608-7.805 4.76-4.16 7.127-9.846 7.097-16.912a.713.713 0 0 1 .717-.723c.395 0 .715.319.718.713.056 7.504-2.5 13.562-7.59 18.012-4.017 3.507-11.913 7.86-26.702 8.654-1.695.117-3.34.158-4.887.158z"/>
        <path fill="#212121" d="M70.367 26.61a.723.723 0 0 1-.713-.728v-.392a.713.713 0 0 1 .713-.723c.394 0 .715.319.717.713v.412a.718.718 0 0 1-.717.718zM49.697 65.617a40.478 40.478 0 0 1-15.649-3.136c-8.655-3.635-13.552-9.032-13.745-9.26a.721.721 0 1 1 1.079-.958 40.116 40.116 0 0 0 13.292 8.91c7.718 3.212 20.125 5.467 35.382-2.037a.723.723 0 0 1 .636 1.298c-7.794 3.813-14.865 5.183-20.995 5.183z"/>
        <path fill="#212121" d="M70.33 60.505a.723.723 0 0 1-.29-1.384.738.738 0 0 1 .968.361.703.703 0 0 1-.33.932l-.057.03a.743.743 0 0 1-.29.061z"/>
        <circle cx="14.305" cy="54.463" r="1.105" fill="#FFF"/>
        <circle cx="79.973" cy="26.997" r="1.105" fill="#FFF"/>
        <circle cx="10.63" cy="49.051" r="1" fill="#FFF"/>
        <circle cx="79.383" cy="56.204" r="1" fill="#FFF"/>
        <circle cx="14.305" cy="16.057" r="1" fill="#FFF"/>
    </g>
</svg>
