<svg xmlns="http://www.w3.org/2000/svg" width="89" height="84" viewBox="0 0 89 84">
    <g fill="none" fill-rule="nonzero">
        <path fill="#E6EFFF" d="M39.469 75.494c-5.673-6.614-1.535-12.365-7.549-20.463C23.066 43.036 8.4 48.16 4.273 39.76-1.68 27.653 19.69-1.344 37.24.05c6.026.476 6.395 4.128 15.557 7.622 18.373 7.017 33.264-1.417 35.65 3.147 2.917 5.6-20.541 15.68-21.533 33.421-.896 15.982 17.282 23.845 13.676 32.071-3.976 9.078-31.064 10.881-41.121-.817z"/>
        <path fill="#E6EFFF" d="M83.754 44.8c-2.179.314-5.673-3.685-4.912-7.426.762-3.74 5.6-6.048 7.426-4.91 1.63 1.007 1.002 4.709.767 6.103-.14.795-1.002 5.88-3.281 6.233zM12.208 76.832c-1.26 2.162-7.28 2.453-10.08-.868-2.537-3.013-1.848-8.12.868-10.08 1.624-1.165 4.306-1.428 5.522-.235.884.868.392 1.92.75 4.121.728 4.39 3.707 5.746 2.94 7.062z"/>
        <rect width="59.696" height="59.696" x="14.202" y="10.192" fill="#FFF" rx="3.97"/>
        <path fill="#50C9C3" d="M73.92 59.88v7.785a2.24 2.24 0 0 1-2.24 2.24H16.42a2.24 2.24 0 0 1-2.24-2.24V59.88a2.24 2.24 0 0 0 2.24 2.24h55.26a2.24 2.24 0 0 0 2.24-2.24z"/>
        <path fill="#212121" d="M71.68 62.894H21.168a.795.795 0 1 1 0-1.585H71.68a1.434 1.434 0 0 0 1.428-1.428.795.795 0 1 1 1.585 0 3.013 3.013 0 0 1-3.013 3.013z"/>
        <path fill="#212121" d="M71.68 70.678H16.42a3.013 3.013 0 0 1-3.014-3.013V12.41a3.013 3.013 0 0 1 3.013-3.013H71.68a3.013 3.013 0 0 1 3.013 3.013v55.255a3.013 3.013 0 0 1-3.013 3.013zm-55.26-59.69c-.787 0-1.426.635-1.429 1.422v55.255c.003.787.64 1.425 1.428 1.428H71.68a1.434 1.434 0 0 0 1.428-1.428V12.41a1.428 1.428 0 0 0-1.428-1.423H16.42z"/>
        <path fill="#212121" d="M61.908 35.946H26.186a.79.79 0 0 1-.796-.795 18.66 18.66 0 1 1 37.313 0 .79.79 0 0 1-.795.795zm-34.91-1.59h34.098c-.436-9.098-7.94-16.251-17.05-16.251-9.108 0-16.612 7.153-17.048 16.251z"/>
        <path fill="#E6DDAF" d="M47.975 35.151h-7.84a3.92 3.92 0 0 1 7.84 0z"/>
        <path fill="#212121" d="M47.975 35.946h-7.84a.795.795 0 0 1-.795-.795 4.726 4.726 0 0 1 9.447 0 .795.795 0 0 1-.812.795zm-6.96-1.59h6.064a3.136 3.136 0 0 0-6.065 0z"/>
        <path fill="#212121" d="M44.05 32.02a.795.795 0 0 1-.796-.794V24.64a.795.795 0 1 1 1.585 0v6.586a.795.795 0 0 1-.79.795z"/>
        <circle cx="44.044" cy="20.642" r="1" fill="#50C9C3"/>
        <circle cx="31.612" cy="28.739" r="1" fill="#50C9C3"/>
        <circle cx="56.482" cy="28.739" r="1" fill="#50C9C3"/>
        <circle cx="6.446" cy="52.489" r="1.12" fill="#E6DDAF"/>
        <circle cx="78.736" cy="50.73" r="1.12" fill="#E6DDAF"/>
        <circle cx="69.16" cy="1.792" r="1.148" fill="#E6DDAF"/>
        <circle cx="75.768" cy="5.006" r="1" fill="#E6DDAF"/>
        <circle cx="26.186" cy="77.274" r="1" fill="#E6DDAF"/>
    </g>
</svg>
