<svg xmlns="http://www.w3.org/2000/svg" width="96" height="84" viewBox="0 0 96 84">
    <g fill="none" fill-rule="nonzero">
        <path fill="#E6EFFF" d="M2.46 45.234c4.353-6.737 12.462-2.877 18.403-9.46 7.175-7.944-.55-18.118 6.709-27.418 5.001-6.429 15.01-9.723 20.77-6.638 5.758 3.086 2.744 10.278 8.377 20.138 8.236 14.33 21.725 11.398 25.843 23.015 3.403 9.614-1.807 23.02-9.79 26.622-7.312 3.294-12.078-3.799-22.043-.938-9.882 2.838-9.42 11.035-17.887 13.006-10.607 2.47-23.887-7.467-29.098-18.886-1.147-2.493-5.748-12.551-1.284-19.441z"/>
        <path fill="#E6EFFF" d="M14.752 24.602c1.647 2.157.752 5.962-1.73 7.516-2.838 1.778-7.186.038-7.532-1.73-.203-1.098 2.372-1.356 3.179-3.755.549-1.647-.264-2.575.423-3.294 1.02-1.087 4.238-.626 5.66 1.263zM94.8 60.628c.96.55 1.339 2.163.982 3.35-1.032 3.425-8.488 4.304-9.257 2.849-.636-1.192 3.13-4.162 3.295-4.3 1.207-.927 3.513-2.733 4.98-1.899z"/>
        <path fill="#50C9C3" d="M76.995 23.773c8.674 20.967-1.29 35.098 1.954 42.746 3.245 7.648 4.173 17.607-7.181 14.593-11.354-3.014-7.445-5.078-17.223-3.93"/>
        <path fill="#FFF" d="M76.995 46.211c0 12.139-2.197 28.489-14.275 27.045-2.547-.302-4.831-.665-6.874-1.098 0 0-2.745 7.373-.906 11.007l-27.758-7.038c7.483-6.665 5.853-24.217 5.853-24.217a5.16 5.16 0 0 1-.873.181 6.539 6.539 0 0 1-7.138-4.974c-1.378-5.682.324-7.884 2.334-8.67.42-.164.862-.27 1.312-.312a5.814 5.814 0 0 1 4.53 2.031l6.093 7.083s7.055-6.665 5.891-18.047c-.966-9.503 21.187-4.073 30.745-3.415-.027.017 1.066 13.446 1.066 20.424z"/>
        <path fill="#212121" d="M64.175 74.118c-.518 0-1.035-.03-1.548-.094-10.91-1.3-17.607-3.695-21.116-7.527a.78.78 0 1 1 1.148-1.048c3.19 3.491 9.783 5.792 20.149 7.033 3.014.362 5.452-.412 7.456-2.367 7.4-7.23 6.039-28.077 5.457-34.291a.78.78 0 1 1 1.548-.149c2.344 24.59-3.36 33.057-5.918 35.555a9.937 9.937 0 0 1-7.176 2.888z"/>
        <path fill="#212121" d="M54.935 83.95a.769.769 0 0 1-.697-.428c-1.95-3.887.752-11.31.873-11.622a.78.78 0 0 1 1.46.549c-.027.071-2.586 7.098-.944 10.387a.774.774 0 0 1-.346 1.043.714.714 0 0 1-.346.072zM32.716 55.204a6.632 6.632 0 0 1-6.418-5.1c-1.4-5.798.604-7.923 2.564-8.68 2.1-.8 4.477-.19 5.93 1.526a.78.78 0 1 1-1.181 1.015 3.744 3.744 0 0 0-4.178-1.098c-1.988.78-2.531 3.086-1.647 6.863a5.062 5.062 0 0 0 5.534 3.843c.217-.025.432-.067.642-.126a.78.78 0 0 1 .489 1.477 5.172 5.172 0 0 1-.933.192 6.04 6.04 0 0 1-.802.088z"/>
        <path fill="#50C9C3" d="M81.892 38.113c-8.675-3.415-12.03-5.908-14-11.53-2.839 5.908-9.63 8.785-15.664 10.201a13.616 13.616 0 0 0-10.503 12.079 50.702 50.702 0 0 1-1.465 8.73 28.423 28.423 0 0 0-.198 13.5c.461 2.058.434 4.249-.824 5.99-3.36 4.633-31.453 2.195-22.938-9.85 7.05-9.992 6.484-14.132 5.441-29.191-1.043-15.06 9.943-30.724 26.161-25.964 0 0 20.423-9.273 29.098 11.7"/>
        <path fill="#212121" d="M75.485 82.446a15.52 15.52 0 0 1-3.92-.549 37.882 37.882 0 0 1-8.296-3.074c-2.196-1.098-2.992-1.505-8.63-.84a.78.78 0 0 1-.182-1.548c6.094-.714 7.138-.182 9.51.999a36.62 36.62 0 0 0 7.998 2.953c3.476.923 5.891.637 7.176-.845 2.196-2.558.983-8.235-.906-12.693-1.323-3.108-.642-7 .214-11.93.802-4.607 1.78-10.245 1.247-16.828-6.967-2.954-10.036-5.424-11.925-9.701-2.745 4.288-8.021 7.434-15.373 9.146a12.83 12.83 0 0 0-9.92 11.37 51.372 51.372 0 0 1-1.488 8.867 27.731 27.731 0 0 0-.187 13.127c.599 2.69.275 4.942-.96 6.616-1.714 2.366-7.89 2.86-12.903 2.317-6.588-.72-11.364-3.025-12.742-6.171-.906-2.075-.418-4.392 1.455-6.912 6.692-8.993 6.385-13.303 5.49-26.09-.06-.829-.121-1.685-.181-2.585-.648-9.136 3.041-18.343 9.393-23.45 3.498-2.81 9.334-5.665 17.498-3.381 1.608-.67 9.882-3.777 17.93-.593 5.26 2.08 9.273 6.396 11.93 12.82a47.732 47.732 0 0 1 3.454 13.516l1.01.401a.78.78 0 0 1-.549 1.45l-.29-.116c.411 6.413-.55 11.909-1.335 16.438-.812 4.678-1.455 8.373-.313 11.052 1.005 2.377 4.03 10.431.654 14.324-1.131 1.268-2.746 1.91-4.86 1.91zM42.088 11.98a17.02 17.02 0 0 0-10.76 3.843c-5.963 4.815-9.428 13.5-8.818 22.142.06.9.12 1.757.181 2.586.944 13.214 1.263 17.673-5.781 27.127-1.51 2.031-1.938 3.843-1.274 5.358 1.131 2.591 5.534 4.6 11.486 5.249 5.95.648 10.508-.352 11.474-1.68.966-1.329 1.197-3.13.697-5.364a29.268 29.268 0 0 1 .203-13.868c.727-2.821 1.208-5.7 1.439-8.604a14.384 14.384 0 0 1 11.118-12.748c5.363-1.252 12.342-3.964 15.136-9.783a.78.78 0 0 1 1.438.082c1.648 4.656 4.124 7.055 10.893 9.976a46.32 46.32 0 0 0-3.245-12.227c-2.492-6.04-6.215-10.053-11.062-11.969-8.192-3.233-16.9.643-16.987.681a.807.807 0 0 1-.55.039 19.765 19.765 0 0 0-5.588-.84z"/>
        <path fill="#212121" d="M68.315 60.43a.78.78 0 0 1-.445-1.421c.39-.286.735-.63 1.021-1.022.61-.867.379-1.405.148-1.734-1.46-2.103-1.51-7.506-1.51-8.115a.78.78 0 1 1 1.56 0c0 1.52.22 5.781 1.224 7.225.438.605.61 1.362.478 2.097-.291 1.587-1.862 2.707-2.043 2.833a.796.796 0 0 1-.433.138z"/>
        <circle cx="91.181" cy="50.433" r="1.471" fill="#E6DDAF"/>
        <circle cx="15.587" cy="16.344" r="1.471" fill="#E6DDAF"/>
        <circle cx="87.722" cy="40.578" r="1.274" fill="#E6DDAF"/>
    </g>
</svg>
