<svg xmlns="http://www.w3.org/2000/svg" width="98" height="24" viewBox="0 0 98 24">
    <defs>
        <linearGradient id="a" x1="0%" y1="47.187%" y2="52.773%">
            <stop offset="0%" stop-color="#96DEDA"/>
            <stop offset="100%" stop-color="#50C9C3"/>
        </linearGradient>
    </defs>
    <path fill="url(#a)" fill-rule="evenodd" d="M47.064 8.82c0 .14-.023.278-.07.417l-2.496 8.184c-.254.832-1.064 1.433-1.919 1.433h-.046a2.012 2.012 0 0 1-1.942-1.433l-1.965-6.312-1.965 6.312a2.062 2.062 0 0 1-1.942 1.433h-.047a2.062 2.062 0 0 1-1.942-1.433l-2.497-8.184a1.31 1.31 0 0 1-.069-.416c0-.717.601-1.41 1.48-1.41.624 0 1.225.415 1.387 1.04l1.826 6.612 2.104-6.474c.231-.693.902-1.179 1.688-1.179.717 0 1.387.486 1.618 1.18l2.104 6.473 1.826-6.612c.162-.625.763-1.04 1.41-1.04.856 0 1.457.67 1.457 1.41zm11.524 3.908c0 .716-.601 1.34-1.364 1.34h-6.89c.185 1.41 1.318 2.59 3.214 2.59.624 0 1.48-.185 2.173-.555.185-.092.393-.139.578-.139.624 0 1.249.486 1.249 1.18 0 1.317-2.844 1.849-4.324 1.849-3.398 0-5.964-2.289-5.964-5.872 0-3.237 2.38-5.85 5.78-5.85 2.52 0 4.438 1.457 5.224 3.769.162.509.324 1.133.324 1.688zm-2.797-.648c-.07-1.063-.81-2.473-2.752-2.473-1.826 0-2.612 1.364-2.75 2.473h5.502zm6.923 5.318c0 .809-.648 1.456-1.48 1.456a1.45 1.45 0 0 1-1.457-1.456V4.59c0-.786.648-1.434 1.503-1.434a1.44 1.44 0 0 1 1.434 1.434v12.808zm4.865 0c0 .809-.647 1.456-1.48 1.456a1.45 1.45 0 0 1-1.456-1.456V4.59c0-.786.647-1.434 1.502-1.434A1.44 1.44 0 0 1 67.58 4.59v12.808zm12.54.555c0 4.254-3.282 5.294-6.033 5.294-1.364 0-3.653-.347-4.324-1.387a1.243 1.243 0 0 1-.185-.648c0-.716.578-1.225 1.226-1.225.208 0 .416.046.624.162.786.485 1.665.694 2.659.694 1.41 0 3.075-.625 3.075-2.821v-1.133c-.879 1.11-2.081 1.757-3.445 1.757-2.798 0-4.925-1.965-4.925-5.687 0-3.653 2.104-5.687 4.925-5.687 1.34 0 2.543.578 3.445 1.71v-.115c0-.81.647-1.457 1.502-1.457.81 0 1.457.648 1.457 1.457v9.086zm-2.958-3.19v-3.607c-.486-.74-1.55-1.272-2.52-1.272-1.665 0-2.821 1.156-2.821 3.075 0 1.919 1.156 3.075 2.82 3.075.972 0 2.035-.555 2.52-1.272zm7.824 2.635c0 .809-.647 1.456-1.48 1.456a1.45 1.45 0 0 1-1.456-1.456V4.59c0-.786.647-1.434 1.503-1.434a1.44 1.44 0 0 1 1.433 1.434v12.808zm13.027-4.277c0 3.19-2.22 5.872-5.919 5.872-3.676 0-5.895-2.682-5.895-5.872 0-3.168 2.22-5.85 5.895-5.85 3.7 0 5.919 2.682 5.919 5.85zm-3.052 0c0 1.757-1.04 3.26-2.867 3.26-1.826 0-2.843-1.503-2.843-3.26 0-1.734 1.017-3.237 2.843-3.237 1.827 0 2.867 1.503 2.867 3.237zM12.536 1.659c-1.188 1.226-2.272 2.372-3.388 3.485-.476.475-.966.978-1.541 1.303-1.694.959-3.426.955-5.13-.028-.126-.072-.246-.155-.37-.233l-.067.078c.108.11.21.225.324.326 1.902 1.691 4.91 1.706 6.773-.037 1.365-1.278 2.665-2.628 3.97-3.97C14.73.919 16.66-.001 18.99 0c3.826.003 7.142 2.974 7.591 6.83.295 2.527-.462 4.726-2.197 6.553-1.289 1.356-2.639 2.652-3.954 3.983-1.556 1.573-3.102 3.156-4.654 4.733-1.386 1.408-3.614 1.335-4.996-.076a717.805 717.805 0 0 0-8.064-8.087C1.49 12.724.546 11.366.19 9.645c-.49-2.376-.047-4.533 1.44-6.466C2.52 2.025 3.618 1.168 4.96.641c1.788-.703 3.607-.756 5.405-.076.75.283 1.444.721 2.172 1.094z"/>
</svg>
